<?xml version="1.0" standalone="no"?>
<!DOCTYPE svg PUBLIC "-//W3C//DTD SVG 20010904//EN"
 "http://www.w3.org/TR/2001/REC-SVG-20010904/DTD/svg10.dtd">
<svg version="1.0" xmlns="http://www.w3.org/2000/svg"
 width="500.000000pt" height="500.000000pt" viewBox="0 0 500.000000 500.000000"
 preserveAspectRatio="xMidYMid meet">

<g transform="translate(0.000000,500.000000) scale(0.100000,-0.100000)"
fill="#000000" stroke="none">
<path d="M0 2500 l0 -2500 2500 0 2500 0 0 2500 0 2500 -2500 0 -2500 0 0
-2500z m2272 423 l3 -497 194 223 c107 122 199 225 205 227 6 2 121 3 255 2
l243 -3 -236 -250 c-130 -137 -236 -254 -236 -259 0 -8 64 -111 409 -657 61
-97 111 -181 111 -185 0 -12 -489 -9 -499 2 -5 5 -74 122 -155 259 -81 138
-152 254 -157 260 -6 6 -32 -13 -72 -53 l-62 -62 -5 -206 -5 -206 -185 1
c-102 0 -197 1 -212 1 l-28 0 0 754 c0 709 -1 754 -17 761 -10 4 -103 6 -206
5 -123 -1 -193 3 -202 10 -9 8 -14 7 -19 -5 -3 -8 -10 -15 -16 -15 -6 0 -10
66 -10 190 l0 190 238 3 c130 1 333 3 449 5 l213 2 2 -497z m1403 -1002 c84
-39 124 -107 125 -209 0 -151 -124 -246 -277 -213 -118 26 -193 151 -163 270
6 25 20 60 31 77 20 32 80 78 115 87 46 12 131 6 169 -12z"/>
</g>
</svg>
